<?xml version="1.0" encoding="UTF-8" standalone="no"?>
<!DOCTYPE svg PUBLIC "-//W3C//DTD SVG 1.1//EN" "http://www.w3.org/Graphics/SVG/1.1/DTD/svg11.dtd">
<svg width="100%" height="100%" viewBox="0 0 1000 1000" version="1.1" xmlns="http://www.w3.org/2000/svg" xmlns:xlink="http://www.w3.org/1999/xlink" xml:space="preserve" style="fill-rule:evenodd;clip-rule:evenodd;stroke-linejoin:round;stroke-miterlimit:1.41421;">
    <g transform="matrix(1.06912,-1.06912,1.06912,1.06912,-558.43,489.309)">
        <g transform="matrix(1.00806,0,0,0.506494,-49.8992,304.494)">
            <rect x="65" y="309" width="31" height="154" style="fill:rgb(216,216,216);"/>
        </g>
        <g transform="matrix(1.00806,0,0,1.00806,12.6008,110.887)">
            <rect x="65" y="309" width="31" height="154" style="fill:rgb(179,179,179);"/>
        </g>
        <g transform="matrix(1.00806,0,0,2.48052,75.1008,-457.481)">
            <rect x="65" y="309" width="31" height="154" style="fill:rgb(162,162,162);"/>
        </g>
        <g transform="matrix(1.00806,0,0,1.57143,137.601,-106.571)">
            <rect x="65" y="309" width="31" height="154" style="fill:rgb(171,171,171);"/>
        </g>
        <g transform="matrix(1.00806,0,0,0.506494,200.101,304.494)">
            <rect x="65" y="309" width="31" height="154" style="fill:rgb(221,221,221);"/>
        </g>
        <g transform="matrix(1.00806,0,0,1.2987,262.601,-1.2987)">
            <rect x="65" y="309" width="31" height="154" style="fill:rgb(183,183,183);"/>
        </g>
        <g transform="matrix(1.00806,0,0,0.87013,325.101,164.13)">
            <rect x="65" y="309" width="31" height="154" style="fill:rgb(214,214,214);"/>
        </g>
        <g transform="matrix(1.00806,0,0,1.48052,387.601,-71.4805)">
            <rect x="65" y="309" width="31" height="154" style="fill:rgb(208,208,208);"/>
        </g>
        <g transform="matrix(1.00806,0,0,1.88312,450.101,-226.883)">
            <rect x="65" y="309" width="31" height="154" style="fill:rgb(156,156,156);"/>
        </g>
        <g transform="matrix(1.00806,0,0,1.18182,512.601,43.8182)">
            <rect x="65" y="309" width="31" height="154" style="fill:rgb(212,212,212);"/>
        </g>
        <g transform="matrix(1.00806,0,0,0.714286,575.101,224.286)">
            <rect x="65" y="309" width="31" height="154" style="fill:rgb(175,175,175);"/>
        </g>
        <g transform="matrix(1.00806,0,0,0.376623,637.601,354.623)">
            <rect x="65" y="309" width="31" height="154" style="fill:rgb(210,210,210);"/>
        </g>
        <g transform="matrix(1.00806,0,0,0.597403,700.101,269.403)">
            <rect x="65" y="309" width="31" height="154" style="fill:rgb(214,214,214);"/>
        </g>
        <g transform="matrix(1.00806,0,0,1.35065,762.601,-21.3506)">
            <rect x="65" y="309" width="31" height="154" style="fill:rgb(137,137,137);"/>
        </g>
        <g transform="matrix(1.00806,0,0,0.857143,825.101,169.143)">
            <rect x="65" y="309" width="31" height="154" style="fill:rgb(146,146,146);"/>
        </g>
        <g transform="matrix(1.00806,0,0,0.597403,887.601,269.403)">
            <rect x="65" y="309" width="31" height="154" style="fill:rgb(147,147,147);"/>
        </g>
    </g>
    <g transform="matrix(1,0,0,1,2.48172,7.27294)">
        <g transform="matrix(0.314746,-0.314746,0.314746,0.314746,162.888,569.485)">
            <path d="M854.307,461.585C854.307,502.827 839.73,538.024 810.577,567.178C781.423,596.332 746.226,610.908 704.984,610.908C663.743,610.908 628.545,596.332 599.391,567.178C570.238,538.024 555.661,502.827 555.661,461.585C555.661,420.344 570.238,385.146 599.391,355.993C628.545,326.839 663.743,312.262 704.984,312.262C746.226,312.262 781.423,326.839 810.577,355.993C839.73,385.146 854.307,420.344 854.307,461.585ZM704.984,354.926C675.546,354.926 650.41,365.343 629.576,386.177C608.742,407.011 598.325,432.147 598.325,461.585C598.325,491.023 608.742,516.159 629.576,536.993C650.41,557.828 675.546,568.245 704.984,568.245C734.422,568.245 759.558,557.828 780.392,536.993C801.226,516.159 811.643,491.023 811.643,461.585C811.643,432.147 801.226,407.011 780.392,386.177C759.558,365.343 734.422,354.926 704.984,354.926Z" style="fill:rgb(64,64,64);fill-rule:nonzero;"/>
            <g transform="matrix(1,0,0,1,-22.6637,0)">
                <path d="M939.635,610.908L896.971,610.908L896.971,312.262L1152.95,515.342L1152.95,312.262L1195.62,312.262L1195.62,610.908L939.635,407.829L939.635,610.908Z" style="fill:rgb(64,64,64);fill-rule:nonzero;"/>
            </g>
            <g transform="matrix(1,0,0,1,-35.5148,0)">
                <path d="M1228.47,312.262L1527.11,312.262L1527.11,354.926L1228.47,354.926L1228.47,312.262ZM1228.47,610.908L1228.47,568.245L1527.11,568.245L1527.11,610.908L1228.47,610.908ZM1228.47,440.253L1527.11,440.253L1527.11,482.917L1228.47,482.917L1228.47,440.253Z" style="fill:rgb(64,64,64);fill-rule:nonzero;"/>
            </g>
            <g transform="matrix(1,0,0,1,-58.1785,1.13687e-13)">
                <path d="M1868.42,312.262L1868.42,354.926L1655.11,354.926C1626.66,354.926 1612.44,369.147 1612.44,397.59C1612.44,426.032 1626.66,440.253 1655.11,440.253L1783.1,440.253C1839.98,440.253 1868.42,468.696 1868.42,525.581C1868.42,582.466 1839.98,610.908 1783.1,610.908L1538.1,610.908L1538.1,568.245L1783.1,568.245C1811.54,568.245 1825.76,554.023 1825.76,525.581C1825.76,497.138 1811.54,482.917 1783.1,482.917L1655.11,482.917C1598.22,482.917 1569.78,454.475 1569.78,397.59C1569.78,340.705 1598.22,312.262 1655.11,312.262L1868.42,312.262Z" style="fill:rgb(64,64,64);fill-rule:nonzero;"/>
            </g>
        </g>
        <g transform="matrix(0.314746,-0.314746,0.314746,0.314746,-189.648,870.065)">
            <path d="M894.027,568.245L894.027,610.908L555.661,610.908L758.74,354.926L555.661,354.926L555.661,312.262L854.307,312.262L651.228,568.245L894.027,568.245Z" style="fill:rgb(64,64,64);fill-rule:nonzero;"/>
            <g transform="matrix(1,0,0,1,-24.9761,0)">
                <path d="M896.971,312.262L1195.62,312.262L1195.62,354.926L896.971,354.926L896.971,312.262ZM896.971,610.908L896.971,568.245L1195.62,568.245L1195.62,610.908L896.971,610.908ZM896.971,440.253L1195.62,440.253L1195.62,482.917L896.971,482.917L896.971,440.253Z" style="fill:rgb(64,64,64);fill-rule:nonzero;"/>
            </g>
            <g transform="matrix(1,0,0,1,-47.6399,0)">
                <path d="M1280.94,610.908L1238.28,610.908L1238.28,312.262L1451.6,312.262C1508.48,312.262 1536.93,340.705 1536.93,397.59C1536.93,454.475 1508.48,482.917 1451.6,482.917L1408.94,482.917L1536.93,610.908L1472.93,610.908L1302.28,440.253L1451.6,440.253C1480.04,440.253 1494.26,426.032 1494.26,397.59C1494.26,369.147 1480.04,354.926 1451.6,354.926L1280.94,354.926L1280.94,610.908Z" style="fill:rgb(64,64,64);fill-rule:nonzero;"/>
            </g>
            <g transform="matrix(1,0,0,1,-70.3036,0)">
                <path d="M1878.24,461.585C1878.24,502.827 1863.66,538.024 1834.51,567.178C1805.35,596.332 1770.15,610.908 1728.91,610.908C1687.67,610.908 1652.47,596.332 1623.32,567.178C1594.17,538.024 1579.59,502.827 1579.59,461.585C1579.59,420.344 1594.17,385.146 1623.32,355.993C1652.47,326.839 1687.67,312.262 1728.91,312.262C1770.15,312.262 1805.35,326.839 1834.51,355.993C1863.66,385.146 1878.24,420.344 1878.24,461.585ZM1728.91,354.926C1699.48,354.926 1674.34,365.343 1653.51,386.177C1632.67,407.011 1622.25,432.147 1622.25,461.585C1622.25,491.023 1632.67,516.159 1653.51,536.993C1674.34,557.828 1699.48,568.245 1728.91,568.245C1758.35,568.245 1783.49,557.828 1804.32,536.993C1825.16,516.159 1835.57,491.023 1835.57,461.585C1835.57,432.147 1825.16,407.011 1804.32,386.177C1783.49,365.343 1758.35,354.926 1728.91,354.926Z" style="fill:rgb(64,64,64);fill-rule:nonzero;"/>
            </g>
        </g>
    </g>
    <g transform="matrix(1,0,0,1,21.5915,34.9888)">
        <g transform="matrix(0.411463,-0.411463,0.411458,0.411458,456.966,826.869)">
            <path d="M66.004,18C52.968,18 51.332,18.057 46.212,18.29C41.102,18.524 37.614,19.333 34.562,20.52C31.405,21.746 28.727,23.386 26.059,26.055C23.389,28.723 21.749,31.401 20.519,34.557C19.329,37.61 18.519,41.099 18.289,46.207C18.06,51.327 18,52.964 18,66C18,79.036 18.058,80.667 18.29,85.787C18.525,90.897 19.334,94.385 20.52,97.437C21.747,100.594 23.387,103.272 26.056,105.94C28.723,108.61 31.401,110.254 34.556,111.48C37.61,112.667 41.099,113.476 46.208,113.71C51.328,113.943 52.963,114 65.998,114C79.035,114 80.666,113.943 85.786,113.71C90.896,113.476 94.388,112.667 97.442,111.48C100.598,110.254 103.272,108.61 105.939,105.94C108.609,103.272 110.249,100.594 111.479,97.438C112.659,94.385 113.469,90.896 113.709,85.788C113.939,80.668 113.999,79.036 113.999,66C113.999,52.964 113.939,51.328 113.709,46.208C113.469,41.098 112.659,37.61 111.479,34.558C110.249,31.401 108.609,28.723 105.939,26.055C103.269,23.385 100.599,21.745 97.439,20.52C94.379,19.333 90.889,18.524 85.779,18.29C80.659,18.057 79.029,18 65.989,18L66.004,18ZM61.698,26.65C62.976,26.648 64.402,26.65 66.004,26.65C78.82,26.65 80.339,26.696 85.4,26.926C90.08,27.14 92.62,27.922 94.312,28.579C96.552,29.449 98.149,30.489 99.828,32.169C101.508,33.849 102.548,35.449 103.42,37.689C104.077,39.379 104.86,41.919 105.073,46.599C105.303,51.659 105.353,53.179 105.353,65.989C105.353,78.799 105.303,80.319 105.073,85.379C104.859,90.059 104.077,92.599 103.42,94.289C102.55,96.529 101.508,98.124 99.828,99.803C98.148,101.483 96.553,102.523 94.312,103.393C92.622,104.053 90.08,104.833 85.4,105.047C80.34,105.277 78.82,105.327 66.004,105.327C53.187,105.327 51.668,105.277 46.608,105.047C41.928,104.831 39.388,104.049 37.695,103.392C35.455,102.522 33.855,101.482 32.175,99.802C30.495,98.122 29.455,96.526 28.583,94.285C27.926,92.595 27.143,90.055 26.93,85.375C26.7,80.315 26.654,78.795 26.654,65.977C26.654,53.159 26.7,51.647 26.93,46.587C27.144,41.907 27.926,39.367 28.583,37.675C29.453,35.435 30.495,33.835 32.175,32.155C33.855,30.475 35.455,29.435 37.695,28.563C39.387,27.903 41.928,27.123 46.608,26.908C51.036,26.708 52.752,26.648 61.698,26.638L61.698,26.65ZM91.626,34.62C88.446,34.62 85.866,37.197 85.866,40.378C85.866,43.558 88.446,46.138 91.626,46.138C94.806,46.138 97.386,43.558 97.386,40.378C97.386,37.198 94.806,34.618 91.626,34.618L91.626,34.62ZM66.004,41.35C52.391,41.35 41.354,52.387 41.354,66C41.354,79.613 52.391,90.645 66.004,90.645C79.617,90.645 90.65,79.613 90.65,66C90.65,52.387 79.616,41.35 66.003,41.35L66.004,41.35ZM66.004,50C74.84,50 82.004,57.163 82.004,66C82.004,74.836 74.84,82 66.004,82C57.167,82 50.004,74.836 50.004,66C50.004,57.163 57.167,50 66.004,50L66.004,50Z" style="fill:rgb(64,64,64);fill-rule:nonzero;"/>
        </g>
        <g transform="matrix(0.360785,-0.360785,0.360785,0.360785,45.7097,705.443)">
            <path d="M545.255,850L545.255,836.532L584.096,788.56L549.644,788.56L549.644,776.05L603.769,776.05L603.769,787.652L563.263,837.541L605.333,837.541L605.333,850L545.255,850Z" style="fill:rgb(64,64,64);fill-rule:nonzero;"/>
            <path d="M614.766,850L614.766,776.05L669.597,776.05L669.597,788.56L629.697,788.56L629.697,804.954L666.823,804.954L666.823,817.414L629.697,817.414L629.697,837.541L671.01,837.541L671.01,850L614.766,850Z" style="fill:rgb(64,64,64);fill-rule:nonzero;"/>
            <path d="M683.721,850L683.721,776.05L715.147,776.05C723.05,776.05 728.792,776.715 732.374,778.043C735.955,779.371 738.822,781.734 740.974,785.13C743.127,788.527 744.203,792.411 744.203,796.783C744.203,802.331 742.572,806.913 739.31,810.528C736.048,814.143 731.172,816.422 724.681,817.363C727.91,819.247 730.575,821.315 732.676,823.568C734.778,825.821 737.611,829.823 741.176,835.573L750.205,850L732.349,850L721.554,833.909C717.72,828.158 715.097,824.535 713.685,823.038C712.272,821.542 710.776,820.516 709.195,819.961C707.615,819.406 705.109,819.129 701.679,819.129L698.653,819.129L698.653,850L683.721,850ZM698.653,807.325L709.7,807.325C716.863,807.325 721.335,807.022 723.117,806.417C724.9,805.812 726.295,804.769 727.304,803.29C728.313,801.81 728.818,799.96 728.818,797.741C728.818,795.252 728.153,793.243 726.825,791.713C725.497,790.183 723.622,789.216 721.201,788.813C719.99,788.644 716.358,788.56 710.305,788.56L698.653,788.56L698.653,807.325Z" style="fill:rgb(64,64,64);fill-rule:nonzero;"/>
            <path d="M755.25,813.479C755.25,805.946 756.376,799.624 758.629,794.513C760.311,790.746 762.606,787.367 765.515,784.374C768.424,781.381 771.61,779.161 775.074,777.715C779.681,775.765 784.994,774.789 791.014,774.789C801.91,774.789 810.628,778.169 817.169,784.928C823.709,791.688 826.98,801.087 826.98,813.126C826.98,825.064 823.735,834.405 817.244,841.147C810.754,847.89 802.078,851.261 791.216,851.261C780.219,851.261 771.476,847.907 764.985,841.198C758.495,834.489 755.25,825.249 755.25,813.479ZM770.635,812.975C770.635,821.348 772.569,827.696 776.436,832.017C780.303,836.338 785.213,838.499 791.165,838.499C797.117,838.499 802.002,836.355 805.819,832.067C809.636,827.78 811.544,821.348 811.544,812.773C811.544,804.299 809.686,797.976 805.97,793.806C802.254,789.636 797.319,787.551 791.165,787.551C785.011,787.551 780.051,789.662 776.284,793.882C772.518,798.102 770.635,804.467 770.635,812.975Z" style="fill:rgb(64,64,64);fill-rule:nonzero;"/>
            <path d="M835.606,813.479C835.606,805.946 836.732,799.624 838.985,794.513C840.667,790.746 842.962,787.367 845.871,784.374C848.78,781.381 851.966,779.161 855.43,777.715C860.037,775.765 865.35,774.789 871.37,774.789C882.265,774.789 890.984,778.169 897.524,784.928C904.065,791.688 907.336,801.087 907.336,813.126C907.336,825.064 904.09,834.405 897.6,841.147C891.11,847.89 882.434,851.261 871.571,851.261C860.575,851.261 851.831,847.907 845.341,841.198C838.851,834.489 835.606,825.249 835.606,813.479ZM850.991,812.975C850.991,821.348 852.924,827.696 856.792,832.017C860.659,836.338 865.569,838.499 871.521,838.499C877.473,838.499 882.358,836.355 886.175,832.067C889.992,827.78 891.9,821.348 891.9,812.773C891.9,804.299 890.042,797.976 886.326,793.806C882.61,789.636 877.675,787.551 871.521,787.551C865.367,787.551 860.407,789.662 856.64,793.882C852.874,798.102 850.991,804.467 850.991,812.975Z" style="fill:rgb(64,64,64);fill-rule:nonzero;"/>
            <path d="M919.139,850L919.139,776.05L933.667,776.05L963.933,825.434L963.933,776.05L977.805,776.05L977.805,850L962.823,850L933.011,801.776L933.011,850L919.139,850Z" style="fill:rgb(64,64,64);fill-rule:nonzero;"/>
            <path d="M993.593,850L993.593,776.05L1048.42,776.05L1048.42,788.56L1008.52,788.56L1008.52,804.954L1045.65,804.954L1045.65,817.414L1008.52,817.414L1008.52,837.541L1049.84,837.541L1049.84,850L993.593,850Z" style="fill:rgb(64,64,64);fill-rule:nonzero;"/>
            <path d="M1058.71,825.939L1073.24,824.526C1074.12,829.402 1075.89,832.984 1078.57,835.271C1081.24,837.557 1084.85,838.701 1089.38,838.701C1094.19,838.701 1097.82,837.683 1100.26,835.649C1102.69,833.614 1103.91,831.235 1103.91,828.511C1103.91,826.763 1103.4,825.274 1102.37,824.047C1101.35,822.82 1099.56,821.752 1097,820.844C1095.25,820.239 1091.27,819.162 1085.05,817.616C1077.04,815.631 1071.43,813.193 1068.2,810.301C1063.66,806.232 1061.39,801.272 1061.39,795.421C1061.39,791.654 1062.46,788.132 1064.59,784.853C1066.73,781.574 1069.8,779.077 1073.82,777.362C1077.84,775.647 1082.69,774.789 1088.38,774.789C1097.66,774.789 1104.64,776.824 1109.34,780.893C1114.03,784.962 1116.49,790.393 1116.73,797.186L1101.79,797.842C1101.15,794.042 1099.78,791.309 1097.68,789.645C1095.58,787.98 1092.43,787.148 1088.22,787.148C1083.89,787.148 1080.49,788.039 1078.04,789.821C1076.45,790.965 1075.66,792.495 1075.66,794.412C1075.66,796.16 1076.4,797.657 1077.88,798.901C1079.77,800.482 1084.34,802.13 1091.6,803.845C1098.87,805.56 1104.24,807.334 1107.72,809.166C1111.2,810.999 1113.92,813.504 1115.89,816.682C1117.86,819.86 1118.84,823.786 1118.84,828.461C1118.84,832.698 1117.67,836.666 1115.31,840.365C1112.96,844.065 1109.63,846.814 1105.33,848.613C1101.02,850.412 1095.66,851.312 1089.23,851.312C1079.88,851.312 1072.7,849.151 1067.69,844.83C1062.68,840.508 1059.69,834.211 1058.71,825.939Z" style="fill:rgb(64,64,64);fill-rule:nonzero;"/>
            <path d="M1131.2,850L1131.2,776.05L1153.55,776.05L1166.97,826.494L1180.23,776.05L1202.63,776.05L1202.63,850L1188.76,850L1188.76,791.789L1174.08,850L1159.7,850L1145.07,791.789L1145.07,850L1131.2,850Z" style="fill:rgb(64,64,64);fill-rule:nonzero;"/>
            <path d="M1217.36,776.05L1232.29,776.05L1232.29,816.102C1232.29,822.458 1232.48,826.578 1232.85,828.461C1233.48,831.487 1235.01,833.917 1237.41,835.75C1239.81,837.583 1243.1,838.499 1247.27,838.499C1251.51,838.499 1254.7,837.633 1256.86,835.901C1259.01,834.169 1260.3,832.042 1260.74,829.52C1261.18,826.998 1261.4,822.811 1261.4,816.96L1261.4,776.05L1276.33,776.05L1276.33,814.892C1276.33,823.77 1275.92,830.041 1275.12,833.707C1274.31,837.372 1272.82,840.466 1270.65,842.988C1268.48,845.511 1265.58,847.52 1261.95,849.016C1258.32,850.513 1253.58,851.261 1247.73,851.261C1240.66,851.261 1235.31,850.446 1231.66,848.815C1228.01,847.184 1225.13,845.065 1223.01,842.459C1220.89,839.853 1219.49,837.12 1218.82,834.262C1217.85,830.025 1217.36,823.77 1217.36,815.497L1217.36,776.05Z" style="fill:rgb(64,64,64);fill-rule:nonzero;"/>
            <path d="M1288.28,825.939L1302.81,824.526C1303.68,829.402 1305.46,832.984 1308.13,835.271C1310.81,837.557 1314.41,838.701 1318.95,838.701C1323.76,838.701 1327.38,837.683 1329.82,835.649C1332.26,833.614 1333.48,831.235 1333.48,828.511C1333.48,826.763 1332.97,825.274 1331.94,824.047C1330.91,822.82 1329.12,821.752 1326.57,820.844C1324.82,820.239 1320.83,819.162 1314.61,817.616C1306.61,815.631 1300.99,813.193 1297.77,810.301C1293.23,806.232 1290.95,801.272 1290.95,795.421C1290.95,791.654 1292.02,788.132 1294.16,784.853C1296.29,781.574 1299.37,779.077 1303.39,777.362C1307.41,775.647 1312.26,774.789 1317.94,774.789C1327.22,774.789 1334.21,776.824 1338.9,780.893C1343.59,784.962 1346.06,790.393 1346.29,797.186L1331.36,797.842C1330.72,794.042 1329.35,791.309 1327.25,789.645C1325.15,787.98 1322,787.148 1317.79,787.148C1313.45,787.148 1310.06,788.039 1307.6,789.821C1306.02,790.965 1305.23,792.495 1305.23,794.412C1305.23,796.16 1305.97,797.657 1307.45,798.901C1309.33,800.482 1313.91,802.13 1321.17,803.845C1328.43,805.56 1333.81,807.334 1337.29,809.166C1340.77,810.999 1343.49,813.504 1345.46,816.682C1347.43,819.86 1348.41,823.786 1348.41,828.461C1348.41,832.698 1347.23,836.666 1344.88,840.365C1342.53,844.065 1339.2,846.814 1334.89,848.613C1330.59,850.412 1325.22,851.312 1318.8,851.312C1309.45,851.312 1302.27,849.151 1297.26,844.83C1292.25,840.508 1289.26,834.211 1288.28,825.939Z" style="fill:rgb(64,64,64);fill-rule:nonzero;"/>
            <rect x="1360.52" y="776.05" width="14.931" height="73.95" style="fill:rgb(64,64,64);fill-rule:nonzero;"/>
            <path d="M1436.99,822.811L1451.46,827.401C1449.25,835.472 1445.56,841.467 1440.39,845.384C1435.23,849.302 1428.68,851.261 1420.75,851.261C1410.93,851.261 1402.86,847.907 1396.53,841.198C1390.21,834.489 1387.05,825.317 1387.05,813.681C1387.05,801.373 1390.23,791.814 1396.58,785.004C1402.94,778.194 1411.3,774.789 1421.65,774.789C1430.7,774.789 1438.05,777.463 1443.7,782.81C1447.06,785.971 1449.58,790.511 1451.26,796.429L1436.48,799.96C1435.61,796.127 1433.79,793.1 1431.01,790.881C1428.24,788.661 1424.87,787.551 1420.9,787.551C1415.41,787.551 1410.97,789.519 1407.55,793.453C1404.14,797.388 1402.43,803.761 1402.43,812.571C1402.43,821.92 1404.12,828.579 1407.48,832.547C1410.84,836.515 1415.21,838.499 1420.59,838.499C1424.56,838.499 1427.98,837.238 1430.83,834.716C1433.69,832.194 1435.74,828.225 1436.99,822.811Z" style="fill:rgb(64,64,64);fill-rule:nonzero;"/>
        </g>
    </g>
</svg>
